<svg height="30" version="1.1" width="30" xmlns="http://www.w3.org/2000/svg" style="overflow: hidden; position: relative; left: -0.0795416px; top: -0.196014px;" viewBox="0 0 30 30" preserveAspectRatio="none"><desc style="-webkit-tap-highlight-color: rgba(0, 0, 0, 0);">Created with Raphaël 2.1.2</desc><defs style="-webkit-tap-highlight-color: rgba(0, 0, 0, 0);"></defs><rect x="0" y="0" width="6" height="6" r="0" rx="0" ry="0" fill="#ac8643" stroke="#ac8643" style="-webkit-tap-highlight-color: rgba(0, 0, 0, 0);"></rect><rect x="6" y="0" width="6" height="6" r="0" rx="0" ry="0" fill="#876831" stroke="#876831" style="-webkit-tap-highlight-color: rgba(0, 0, 0, 0);"></rect><rect x="12" y="0" width="6" height="6" r="0" rx="0" ry="0" fill="#6a4200" stroke="#6a4200" style="-webkit-tap-highlight-color: rgba(0, 0, 0, 0);"></rect><rect x="18" y="0" width="6" height="6" r="0" rx="0" ry="0" fill="#6a4200" stroke="#6a4200" style="-webkit-tap-highlight-color: rgba(0, 0, 0, 0);"></rect><rect x="24" y="0" width="6" height="6" r="0" rx="0" ry="0" fill="#ac8643" stroke="#ac8643" style="-webkit-tap-highlight-color: rgba(0, 0, 0, 0);"></rect><rect x="0" y="6" width="6" height="6" r="0" rx="0" ry="0" fill="#876831" stroke="#876831" style="-webkit-tap-highlight-color: rgba(0, 0, 0, 0);"></rect><rect x="6" y="6" width="6" height="6" r="0" rx="0" ry="0" fill="#6a4200" stroke="#6a4200" style="-webkit-tap-highlight-color: rgba(0, 0, 0, 0);"></rect><rect x="12" y="6" width="6" height="6" r="0" rx="0" ry="0" fill="#b7eff5" stroke="#b7eff5" style="-webkit-tap-highlight-color: rgba(0, 0, 0, 0);"></rect><rect x="18" y="6" width="6" height="6" r="0" rx="0" ry="0" fill="#7ee6ef" stroke="#7ee6ef" style="-webkit-tap-highlight-color: rgba(0, 0, 0, 0);"></rect><rect x="24" y="6" width="6" height="6" r="0" rx="0" ry="0" fill="#6a4200" stroke="#6a4200" style="-webkit-tap-highlight-color: rgba(0, 0, 0, 0);"></rect><rect x="0" y="12" width="6" height="6" r="0" rx="0" ry="0" fill="#6a4200" stroke="#6a4200" style="-webkit-tap-highlight-color: rgba(0, 0, 0, 0);"></rect><rect x="6" y="12" width="6" height="6" r="0" rx="0" ry="0" fill="#26d8e8" stroke="#26d8e8" style="-webkit-tap-highlight-color: rgba(0, 0, 0, 0);"></rect><rect x="12" y="12" width="6" height="6" r="0" rx="0" ry="0" fill="#7ee6ef" stroke="#7ee6ef" style="-webkit-tap-highlight-color: rgba(0, 0, 0, 0);"></rect><rect x="18" y="12" width="6" height="6" r="0" rx="0" ry="0" fill="#b7eff5" stroke="#b7eff5" style="-webkit-tap-highlight-color: rgba(0, 0, 0, 0);"></rect><rect x="24" y="12" width="6" height="6" r="0" rx="0" ry="0" fill="#6a4200" stroke="#6a4200" style="-webkit-tap-highlight-color: rgba(0, 0, 0, 0);"></rect><rect x="0" y="18" width="6" height="6" r="0" rx="0" ry="0" fill="#6a4200" stroke="#6a4200" style="-webkit-tap-highlight-color: rgba(0, 0, 0, 0);"></rect><rect x="6" y="18" width="6" height="6" r="0" rx="0" ry="0" fill="#7ee6ef" stroke="#7ee6ef" style="-webkit-tap-highlight-color: rgba(0, 0, 0, 0);"></rect><rect x="12" y="18" width="6" height="6" r="0" rx="0" ry="0" fill="#26d8e8" stroke="#26d8e8" style="-webkit-tap-highlight-color: rgba(0, 0, 0, 0);"></rect><rect x="18" y="18" width="6" height="6" r="0" rx="0" ry="0" fill="#6a4200" stroke="#6a4200" style="-webkit-tap-highlight-color: rgba(0, 0, 0, 0);"></rect><rect x="24" y="18" width="6" height="6" r="0" rx="0" ry="0" fill="#876831" stroke="#876831" style="-webkit-tap-highlight-color: rgba(0, 0, 0, 0);"></rect><rect x="0" y="24" width="6" height="6" r="0" rx="0" ry="0" fill="#ac8643" stroke="#ac8643" style="-webkit-tap-highlight-color: rgba(0, 0, 0, 0);"></rect><rect x="6" y="24" width="6" height="6" r="0" rx="0" ry="0" fill="#6a4200" stroke="#6a4200" style="-webkit-tap-highlight-color: rgba(0, 0, 0, 0);"></rect><rect x="12" y="24" width="6" height="6" r="0" rx="0" ry="0" fill="#6a4200" stroke="#6a4200" style="-webkit-tap-highlight-color: rgba(0, 0, 0, 0);"></rect><rect x="18" y="24" width="6" height="6" r="0" rx="0" ry="0" fill="#876831" stroke="#876831" style="-webkit-tap-highlight-color: rgba(0, 0, 0, 0);"></rect><rect x="24" y="24" width="6" height="6" r="0" rx="0" ry="0" fill="#ac8643" stroke="#ac8643" style="-webkit-tap-highlight-color: rgba(0, 0, 0, 0);"></rect></svg>