<svg height="24" version="1.1" width="24" xmlns="http://www.w3.org/2000/svg" style="overflow: hidden; position: relative; left: -0.5px; top: -0.5px;" viewBox="0 0 20 20" preserveAspectRatio="xMidYMid meet"><desc style="-webkit-tap-highlight-color: rgba(0, 0, 0, 0);">Created with Raphaël 2.1.2</desc><defs style="-webkit-tap-highlight-color: rgba(0, 0, 0, 0);"></defs><rect x="0" y="0" width="4" height="4" r="0" rx="0" ry="0" fill="#000000" stroke="#000000" fill-opacity="0" stroke-opacity="0" stroke-width="0" style="-webkit-tap-highlight-color: rgba(0, 0, 0, 0);"></rect><rect x="4" y="0" width="4" height="4" r="0" rx="0" ry="0" fill="#000000" stroke="#000000" fill-opacity="0" stroke-opacity="0" stroke-width="0" style="-webkit-tap-highlight-color: rgba(0, 0, 0, 0);"></rect><rect x="8" y="0" width="4" height="4" r="0" rx="0" ry="0" fill="#000000" stroke="#000000" fill-opacity="0" stroke-opacity="0" stroke-width="0" style="-webkit-tap-highlight-color: rgba(0, 0, 0, 0);"></rect><rect x="12" y="0" width="4" height="4" r="0" rx="0" ry="0" fill="#000000" stroke="#000000" fill-opacity="0" stroke-opacity="0" stroke-width="0" style="-webkit-tap-highlight-color: rgba(0, 0, 0, 0);"></rect><rect x="16" y="0" width="4" height="4" r="0" rx="0" ry="0" fill="#000000" stroke="#000000" fill-opacity="0" stroke-opacity="0" stroke-width="0" style="-webkit-tap-highlight-color: rgba(0, 0, 0, 0);"></rect><rect x="0" y="4" width="4" height="4" r="0" rx="0" ry="0" fill="#000000" stroke="#000000" fill-opacity="0" stroke-opacity="0" stroke-width="0" style="-webkit-tap-highlight-color: rgba(0, 0, 0, 0);"></rect><rect x="4" y="4" width="4" height="4" r="0" rx="0" ry="0" fill="#876831" stroke="#876831" stroke-width="0" style="-webkit-tap-highlight-color: rgba(0, 0, 0, 0);"></rect><rect x="8" y="4" width="4" height="4" r="0" rx="0" ry="0" fill="#ac8643" stroke="#ac8643" stroke-width="0" style="-webkit-tap-highlight-color: rgba(0, 0, 0, 0);"></rect><rect x="12" y="4" width="4" height="4" r="0" rx="0" ry="0" fill="#876831" stroke="#876831" stroke-width="0" style="-webkit-tap-highlight-color: rgba(0, 0, 0, 0);"></rect><rect x="16" y="4" width="4" height="4" r="0" rx="0" ry="0" fill="#000000" stroke="#000000" fill-opacity="0" stroke-opacity="0" stroke-width="0" style="-webkit-tap-highlight-color: rgba(0, 0, 0, 0);"></rect><rect x="0" y="8" width="4" height="4" r="0" rx="0" ry="0" fill="#876831" stroke="#876831" stroke-width="0" style="-webkit-tap-highlight-color: rgba(0, 0, 0, 0);"></rect><rect x="4" y="8" width="4" height="4" r="0" rx="0" ry="0" fill="#dcbd64" stroke="#dcbd64" stroke-width="0" style="-webkit-tap-highlight-color: rgba(0, 0, 0, 0);"></rect><rect x="8" y="8" width="4" height="4" r="0" rx="0" ry="0" fill="#dcbd64" stroke="#dcbd64" stroke-width="0" style="-webkit-tap-highlight-color: rgba(0, 0, 0, 0);"></rect><rect x="12" y="8" width="4" height="4" r="0" rx="0" ry="0" fill="#dcbd64" stroke="#dcbd64" stroke-width="0" style="-webkit-tap-highlight-color: rgba(0, 0, 0, 0);"></rect><rect x="16" y="8" width="4" height="4" r="0" rx="0" ry="0" fill="#876831" stroke="#876831" stroke-width="0" style="-webkit-tap-highlight-color: rgba(0, 0, 0, 0);"></rect><rect x="0" y="12" width="4" height="4" r="0" rx="0" ry="0" fill="#ac8643" stroke="#ac8643" stroke-width="0" style="-webkit-tap-highlight-color: rgba(0, 0, 0, 0);"></rect><rect x="4" y="12" width="4" height="4" r="0" rx="0" ry="0" fill="#dcbd64" stroke="#dcbd64" stroke-width="0" style="-webkit-tap-highlight-color: rgba(0, 0, 0, 0);"></rect><rect x="8" y="12" width="4" height="4" r="0" rx="0" ry="0" fill="#dcbd64" stroke="#dcbd64" stroke-width="0" style="-webkit-tap-highlight-color: rgba(0, 0, 0, 0);"></rect><rect x="12" y="12" width="4" height="4" r="0" rx="0" ry="0" fill="#876831" stroke="#876831" stroke-width="0" style="-webkit-tap-highlight-color: rgba(0, 0, 0, 0);"></rect><rect x="16" y="12" width="4" height="4" r="0" rx="0" ry="0" fill="#ac8643" stroke="#ac8643" stroke-width="0" style="-webkit-tap-highlight-color: rgba(0, 0, 0, 0);"></rect><rect x="0" y="16" width="4" height="4" r="0" rx="0" ry="0" fill="#876831" stroke="#876831" stroke-width="0" style="-webkit-tap-highlight-color: rgba(0, 0, 0, 0);"></rect><rect x="4" y="16" width="4" height="4" r="0" rx="0" ry="0" fill="#dcbd64" stroke="#dcbd64" stroke-width="0" style="-webkit-tap-highlight-color: rgba(0, 0, 0, 0);"></rect><rect x="8" y="16" width="4" height="4" r="0" rx="0" ry="0" fill="#dcbd64" stroke="#dcbd64" stroke-width="0" style="-webkit-tap-highlight-color: rgba(0, 0, 0, 0);"></rect><rect x="12" y="16" width="4" height="4" r="0" rx="0" ry="0" fill="#dcbd64" stroke="#dcbd64" stroke-width="0" style="-webkit-tap-highlight-color: rgba(0, 0, 0, 0);"></rect><rect x="16" y="16" width="4" height="4" r="0" rx="0" ry="0" fill="#876831" stroke="#876831" stroke-width="0" style="-webkit-tap-highlight-color: rgba(0, 0, 0, 0);"></rect></svg>