<svg height="30" version="1.1" width="30" xmlns="http://www.w3.org/2000/svg" style="overflow: hidden; position: relative; left: -0.511356px; top: -0.196014px;" viewBox="0 0 30 30" preserveAspectRatio="none" class="svg_animated"><desc style="-webkit-tap-highlight-color: rgba(0, 0, 0, 0);">Created with Raphaël 2.1.2</desc><defs style="-webkit-tap-highlight-color: rgba(0, 0, 0, 0);"></defs><rect x="0" y="0" width="6" height="6" r="0" rx="0" ry="0" fill="#000000" stroke="#000000" fill-opacity="0" stroke-opacity="0" style="-webkit-tap-highlight-color: rgba(0, 0, 0, 0);"></rect><rect x="6" y="0" width="6" height="6" r="0" rx="0" ry="0" fill="#d87300" stroke="#d87300" style="-webkit-tap-highlight-color: rgba(0, 0, 0, 0);"></rect><rect x="12" y="0" width="6" height="6" r="0" rx="0" ry="0" fill="#bbbbbb" stroke="#bbbbbb" style="-webkit-tap-highlight-color: rgba(0, 0, 0, 0);"></rect><rect x="18" y="0" width="6" height="6" r="0" rx="0" ry="0" fill="#000000" stroke="#000000" fill-opacity="0" stroke-opacity="0" style="-webkit-tap-highlight-color: rgba(0, 0, 0, 0);"></rect><rect x="24" y="0" width="6" height="6" r="0" rx="0" ry="0" fill="#000000" stroke="#000000" fill-opacity="0" stroke-opacity="0" style="-webkit-tap-highlight-color: rgba(0, 0, 0, 0);"></rect><rect x="0" y="6" width="6" height="6" r="0" rx="0" ry="0" fill="#000000" stroke="#000000" fill-opacity="0" stroke-opacity="0" style="-webkit-tap-highlight-color: rgba(0, 0, 0, 0);"></rect><rect x="6" y="6" width="6" height="6" r="0" rx="0" ry="0" fill="#dcce33" stroke="#dcce33" style="-webkit-tap-highlight-color: rgba(0, 0, 0, 0);"></rect><rect x="12" y="6" width="6" height="6" r="0" rx="0" ry="0" fill="#d87300" stroke="#d87300" style="-webkit-tap-highlight-color: rgba(0, 0, 0, 0);"></rect><rect x="18" y="6" width="6" height="6" r="0" rx="0" ry="0" fill="#000000" stroke="#000000" fill-opacity="0" stroke-opacity="0" style="-webkit-tap-highlight-color: rgba(0, 0, 0, 0);"></rect><rect x="24" y="6" width="6" height="6" r="0" rx="0" ry="0" fill="#000000" stroke="#000000" fill-opacity="0" stroke-opacity="0" style="-webkit-tap-highlight-color: rgba(0, 0, 0, 0);"></rect><rect x="0" y="12" width="6" height="6" r="0" rx="0" ry="0" fill="#000000" stroke="#000000" fill-opacity="0" stroke-opacity="0" style="-webkit-tap-highlight-color: rgba(0, 0, 0, 0);"></rect><rect x="6" y="12" width="6" height="6" r="0" rx="0" ry="0" fill="#d87300" stroke="#d87300" style="-webkit-tap-highlight-color: rgba(0, 0, 0, 0);"></rect><rect x="12" y="12" width="6" height="6" r="0" rx="0" ry="0" fill="#dcce33" stroke="#dcce33" style="-webkit-tap-highlight-color: rgba(0, 0, 0, 0);"></rect><rect x="18" y="12" width="6" height="6" r="0" rx="0" ry="0" fill="#d87300" stroke="#d87300" style="-webkit-tap-highlight-color: rgba(0, 0, 0, 0);"></rect><rect x="24" y="12" width="6" height="6" r="0" rx="0" ry="0" fill="#000000" stroke="#000000" fill-opacity="0" stroke-opacity="0" style="-webkit-tap-highlight-color: rgba(0, 0, 0, 0);"></rect><rect x="0" y="18" width="6" height="6" r="0" rx="0" ry="0" fill="#000000" stroke="#000000" fill-opacity="0" stroke-opacity="0" style="-webkit-tap-highlight-color: rgba(0, 0, 0, 0);"></rect><rect x="6" y="18" width="6" height="6" r="0" rx="0" ry="0" fill="#472d01" stroke="#472d01" style="-webkit-tap-highlight-color: rgba(0, 0, 0, 0);"></rect><rect x="12" y="18" width="6" height="6" r="0" rx="0" ry="0" fill="#6a4200" stroke="#6a4200" style="-webkit-tap-highlight-color: rgba(0, 0, 0, 0);"></rect><rect x="18" y="18" width="6" height="6" r="0" rx="0" ry="0" fill="#6a4200" stroke="#6a4200" style="-webkit-tap-highlight-color: rgba(0, 0, 0, 0);"></rect><rect x="24" y="18" width="6" height="6" r="0" rx="0" ry="0" fill="#000000" stroke="#000000" fill-opacity="0" stroke-opacity="0" style="-webkit-tap-highlight-color: rgba(0, 0, 0, 0);"></rect><rect x="0" y="24" width="6" height="6" r="0" rx="0" ry="0" fill="#000000" stroke="#000000" fill-opacity="0" stroke-opacity="0" style="-webkit-tap-highlight-color: rgba(0, 0, 0, 0);"></rect><rect x="6" y="24" width="6" height="6" r="0" rx="0" ry="0" fill="#6a4200" stroke="#6a4200" style="-webkit-tap-highlight-color: rgba(0, 0, 0, 0);"></rect><rect x="12" y="24" width="6" height="6" r="0" rx="0" ry="0" fill="#472d01" stroke="#472d01" style="-webkit-tap-highlight-color: rgba(0, 0, 0, 0);"></rect><rect x="18" y="24" width="6" height="6" r="0" rx="0" ry="0" fill="#472d01" stroke="#472d01" style="-webkit-tap-highlight-color: rgba(0, 0, 0, 0);"></rect><rect x="24" y="24" width="6" height="6" r="0" rx="0" ry="0" fill="#000000" stroke="#000000" fill-opacity="0" stroke-opacity="0" style="-webkit-tap-highlight-color: rgba(0, 0, 0, 0);"></rect><rect x="30" y="0" width="6" height="6" r="0" rx="0" ry="0" fill="#000000" stroke="#000000" fill-opacity="0" stroke-opacity="0" style="-webkit-tap-highlight-color: rgba(0, 0, 0, 0);"></rect><rect x="36" y="0" width="6" height="6" r="0" rx="0" ry="0" fill="#000000" stroke="#000000" fill-opacity="0" stroke-opacity="0" style="-webkit-tap-highlight-color: rgba(0, 0, 0, 0);"></rect><rect x="42" y="0" width="6" height="6" r="0" rx="0" ry="0" fill="#000000" stroke="#000000" fill-opacity="0" stroke-opacity="0" style="-webkit-tap-highlight-color: rgba(0, 0, 0, 0);"></rect><rect x="48" y="0" width="6" height="6" r="0" rx="0" ry="0" fill="#d87300" stroke="#d87300" style="-webkit-tap-highlight-color: rgba(0, 0, 0, 0);"></rect><rect x="54" y="0" width="6" height="6" r="0" rx="0" ry="0" fill="#000000" stroke="#000000" fill-opacity="0" stroke-opacity="0" style="-webkit-tap-highlight-color: rgba(0, 0, 0, 0);"></rect><rect x="30" y="6" width="6" height="6" r="0" rx="0" ry="0" fill="#000000" stroke="#000000" fill-opacity="0" stroke-opacity="0" style="-webkit-tap-highlight-color: rgba(0, 0, 0, 0);"></rect><rect x="36" y="6" width="6" height="6" r="0" rx="0" ry="0" fill="#000000" stroke="#000000" fill-opacity="0" stroke-opacity="0" style="-webkit-tap-highlight-color: rgba(0, 0, 0, 0);"></rect><rect x="42" y="6" width="6" height="6" r="0" rx="0" ry="0" fill="#d87300" stroke="#d87300" style="-webkit-tap-highlight-color: rgba(0, 0, 0, 0);"></rect><rect x="48" y="6" width="6" height="6" r="0" rx="0" ry="0" fill="#dcce33" stroke="#dcce33" style="-webkit-tap-highlight-color: rgba(0, 0, 0, 0);"></rect><rect x="54" y="6" width="6" height="6" r="0" rx="0" ry="0" fill="#000000" stroke="#000000" fill-opacity="0" stroke-opacity="0" style="-webkit-tap-highlight-color: rgba(0, 0, 0, 0);"></rect><rect x="30" y="12" width="6" height="6" r="0" rx="0" ry="0" fill="#000000" stroke="#000000" fill-opacity="0" stroke-opacity="0" style="-webkit-tap-highlight-color: rgba(0, 0, 0, 0);"></rect><rect x="36" y="12" width="6" height="6" r="0" rx="0" ry="0" fill="#d87300" stroke="#d87300" style="-webkit-tap-highlight-color: rgba(0, 0, 0, 0);"></rect><rect x="42" y="12" width="6" height="6" r="0" rx="0" ry="0" fill="#dcce33" stroke="#dcce33" style="-webkit-tap-highlight-color: rgba(0, 0, 0, 0);"></rect><rect x="48" y="12" width="6" height="6" r="0" rx="0" ry="0" fill="#d87300" stroke="#d87300" style="-webkit-tap-highlight-color: rgba(0, 0, 0, 0);"></rect><rect x="54" y="12" width="6" height="6" r="0" rx="0" ry="0" fill="#000000" stroke="#000000" fill-opacity="0" stroke-opacity="0" style="-webkit-tap-highlight-color: rgba(0, 0, 0, 0);"></rect><rect x="30" y="18" width="6" height="6" r="0" rx="0" ry="0" fill="#000000" stroke="#000000" fill-opacity="0" stroke-opacity="0" style="-webkit-tap-highlight-color: rgba(0, 0, 0, 0);"></rect><rect x="36" y="18" width="6" height="6" r="0" rx="0" ry="0" fill="#472d01" stroke="#472d01" style="-webkit-tap-highlight-color: rgba(0, 0, 0, 0);"></rect><rect x="42" y="18" width="6" height="6" r="0" rx="0" ry="0" fill="#6a4200" stroke="#6a4200" style="-webkit-tap-highlight-color: rgba(0, 0, 0, 0);"></rect><rect x="48" y="18" width="6" height="6" r="0" rx="0" ry="0" fill="#6a4200" stroke="#6a4200" style="-webkit-tap-highlight-color: rgba(0, 0, 0, 0);"></rect><rect x="54" y="18" width="6" height="6" r="0" rx="0" ry="0" fill="#000000" stroke="#000000" fill-opacity="0" stroke-opacity="0" style="-webkit-tap-highlight-color: rgba(0, 0, 0, 0);"></rect><rect x="30" y="24" width="6" height="6" r="0" rx="0" ry="0" fill="#000000" stroke="#000000" fill-opacity="0" stroke-opacity="0" style="-webkit-tap-highlight-color: rgba(0, 0, 0, 0);"></rect><rect x="36" y="24" width="6" height="6" r="0" rx="0" ry="0" fill="#6a4200" stroke="#6a4200" style="-webkit-tap-highlight-color: rgba(0, 0, 0, 0);"></rect><rect x="42" y="24" width="6" height="6" r="0" rx="0" ry="0" fill="#472d01" stroke="#472d01" style="-webkit-tap-highlight-color: rgba(0, 0, 0, 0);"></rect><rect x="48" y="24" width="6" height="6" r="0" rx="0" ry="0" fill="#472d01" stroke="#472d01" style="-webkit-tap-highlight-color: rgba(0, 0, 0, 0);"></rect><rect x="54" y="24" width="6" height="6" r="0" rx="0" ry="0" fill="#000000" stroke="#000000" fill-opacity="0" stroke-opacity="0" style="-webkit-tap-highlight-color: rgba(0, 0, 0, 0);"></rect>
<style>
@keyframes svgAnimate {
    0% {
        -webkit-transform: translateX(0px);
        transform: translateX(0px);
    }
    50% {
        -webkit-transform: translateX(-30px);
        transform: translateX(-30px);
    }
    100% {
        -webkit-transform: translateX(0px);
        transform: translateX(0px);
    }
}
rect {animation: svgAnimate 2s steps(1) infinite;}
</style>
</svg>