<svg height="30" version="1.1" width="30" xmlns="http://www.w3.org/2000/svg" style="overflow: hidden; position: relative; top: -0.5px;" viewBox="0 0 30 30" preserveAspectRatio="none"><desc style="-webkit-tap-highlight-color: rgba(0, 0, 0, 0);">Created with Raphaël 2.1.2</desc><defs style="-webkit-tap-highlight-color: rgba(0, 0, 0, 0);"></defs><rect x="0" y="0" width="6" height="6" r="0" rx="0" ry="0" fill="#000000" stroke="#000000" fill-opacity="0" stroke-opacity="0" style="-webkit-tap-highlight-color: rgba(0, 0, 0, 0);"></rect><rect x="6" y="0" width="6" height="6" r="0" rx="0" ry="0" fill="#000000" stroke="#000000" fill-opacity="0" stroke-opacity="0" style="-webkit-tap-highlight-color: rgba(0, 0, 0, 0);"></rect><rect x="12" y="0" width="6" height="6" r="0" rx="0" ry="0" fill="#000000" stroke="#000000" fill-opacity="0" stroke-opacity="0" style="-webkit-tap-highlight-color: rgba(0, 0, 0, 0);"></rect><rect x="18" y="0" width="6" height="6" r="0" rx="0" ry="0" fill="#000000" stroke="#000000" fill-opacity="0" stroke-opacity="0" style="-webkit-tap-highlight-color: rgba(0, 0, 0, 0);"></rect><rect x="24" y="0" width="6" height="6" r="0" rx="0" ry="0" fill="#dedede" stroke="#dedede" style="-webkit-tap-highlight-color: rgba(0, 0, 0, 0);"></rect><rect x="0" y="6" width="6" height="6" r="0" rx="0" ry="0" fill="#000000" stroke="#000000" fill-opacity="0" stroke-opacity="0" style="-webkit-tap-highlight-color: rgba(0, 0, 0, 0);"></rect><rect x="6" y="6" width="6" height="6" r="0" rx="0" ry="0" fill="#000000" stroke="#000000" fill-opacity="0" stroke-opacity="0" style="-webkit-tap-highlight-color: rgba(0, 0, 0, 0);"></rect><rect x="12" y="6" width="6" height="6" r="0" rx="0" ry="0" fill="#000000" stroke="#000000" fill-opacity="0" stroke-opacity="0" style="-webkit-tap-highlight-color: rgba(0, 0, 0, 0);"></rect><rect x="18" y="6" width="6" height="6" r="0" rx="0" ry="0" fill="#dcbd64" stroke="#dcbd64" style="-webkit-tap-highlight-color: rgba(0, 0, 0, 0);"></rect><rect x="24" y="6" width="6" height="6" r="0" rx="0" ry="0" fill="#000000" stroke="#000000" fill-opacity="0" stroke-opacity="0" style="-webkit-tap-highlight-color: rgba(0, 0, 0, 0);"></rect><rect x="0" y="12" width="6" height="6" r="0" rx="0" ry="0" fill="#000000" stroke="#000000" fill-opacity="0" stroke-opacity="0" style="-webkit-tap-highlight-color: rgba(0, 0, 0, 0);"></rect><rect x="6" y="12" width="6" height="6" r="0" rx="0" ry="0" fill="#000000" stroke="#000000" fill-opacity="0" stroke-opacity="0" style="-webkit-tap-highlight-color: rgba(0, 0, 0, 0);"></rect><rect x="12" y="12" width="6" height="6" r="0" rx="0" ry="0" fill="#dcbd64" stroke="#dcbd64" style="-webkit-tap-highlight-color: rgba(0, 0, 0, 0);"></rect><rect x="18" y="12" width="6" height="6" r="0" rx="0" ry="0" fill="#000000" stroke="#000000" fill-opacity="0" stroke-opacity="0" style="-webkit-tap-highlight-color: rgba(0, 0, 0, 0);"></rect><rect x="24" y="12" width="6" height="6" r="0" rx="0" ry="0" fill="#000000" stroke="#000000" fill-opacity="0" stroke-opacity="0" style="-webkit-tap-highlight-color: rgba(0, 0, 0, 0);"></rect><rect x="0" y="18" width="6" height="6" r="0" rx="0" ry="0" fill="#000000" stroke="#000000" fill-opacity="0" stroke-opacity="0" style="-webkit-tap-highlight-color: rgba(0, 0, 0, 0);"></rect><rect x="6" y="18" width="6" height="6" r="0" rx="0" ry="0" fill="#ac8643" stroke="#ac8643" style="-webkit-tap-highlight-color: rgba(0, 0, 0, 0);"></rect><rect x="12" y="18" width="6" height="6" r="0" rx="0" ry="0" fill="#000000" stroke="#000000" fill-opacity="0" stroke-opacity="0" style="-webkit-tap-highlight-color: rgba(0, 0, 0, 0);"></rect><rect x="18" y="18" width="6" height="6" r="0" rx="0" ry="0" fill="#000000" stroke="#000000" fill-opacity="0" stroke-opacity="0" style="-webkit-tap-highlight-color: rgba(0, 0, 0, 0);"></rect><rect x="24" y="18" width="6" height="6" r="0" rx="0" ry="0" fill="#000000" stroke="#000000" fill-opacity="0" stroke-opacity="0" style="-webkit-tap-highlight-color: rgba(0, 0, 0, 0);"></rect><rect x="0" y="24" width="6" height="6" r="0" rx="0" ry="0" fill="#ac8643" stroke="#ac8643" style="-webkit-tap-highlight-color: rgba(0, 0, 0, 0);"></rect><rect x="6" y="24" width="6" height="6" r="0" rx="0" ry="0" fill="#000000" stroke="#000000" fill-opacity="0" stroke-opacity="0" style="-webkit-tap-highlight-color: rgba(0, 0, 0, 0);"></rect><rect x="12" y="24" width="6" height="6" r="0" rx="0" ry="0" fill="#000000" stroke="#000000" fill-opacity="0" stroke-opacity="0" style="-webkit-tap-highlight-color: rgba(0, 0, 0, 0);"></rect><rect x="18" y="24" width="6" height="6" r="0" rx="0" ry="0" fill="#000000" stroke="#000000" fill-opacity="0" stroke-opacity="0" style="-webkit-tap-highlight-color: rgba(0, 0, 0, 0);"></rect><rect x="24" y="24" width="6" height="6" r="0" rx="0" ry="0" fill="#000000" stroke="#000000" fill-opacity="0" stroke-opacity="0" style="-webkit-tap-highlight-color: rgba(0, 0, 0, 0);"></rect></svg>